<svg xmlns="http://www.w3.org/2000/svg" xmlns:xlink="http://www.w3.org/1999/xlink" version="1.1" x="0px" y="0px" viewBox="0 0 100 100" enable-background="new 0 0 100 100" xml:space="preserve"><path d="M78.125,11.33h-4.25V3.973h-8v7.357h-32V3.973h-8v7.357h-4c-6.617,0-12,5.383-12,12v60.697c0,6.617,5.383,12,12,12h56.25  c6.617,0,12-5.383,12-12V23.33C90.125,16.713,84.742,11.33,78.125,11.33z M82.125,84.027c0,2.205-1.794,4-3,4h-56.25  c-3.206,0-5-1.795-5-4v-49h64.25V84.027z M62.282,40.762H52.203v11.277h10.079V40.762z M62.282,72.234H52.203v11.277h10.079V72.234z   M62.282,56.9H52.203v11.277h10.079V56.9z M76.768,40.762H66.688v11.277h10.079V40.762z M76.768,72.234H66.688v11.277h10.079V72.234  z M76.768,56.9H66.688v11.277h10.079V56.9z M33.311,56.9H23.231v11.277h10.079V56.9z M33.311,72.234H23.231v11.277h10.079V72.234z   M33.311,40.762H23.231v11.277h10.079V40.762z M47.796,56.9H37.717v11.277h10.079V56.9z M47.796,72.234H37.717v11.277h10.079V72.234  z M47.796,40.762H37.717v11.277h10.079V40.762z"></path></svg>