<svg xmlns="http://www.w3.org/2000/svg" xmlns:xlink="http://www.w3.org/1999/xlink" xml:space="preserve" version="1.0" style="shape-rendering:geometricPrecision;text-rendering:geometricPrecision;image-rendering:optimizeQuality;" viewBox="0 0 100000 125000" x="0px" y="0px" fill-rule="evenodd" clip-rule="evenodd"><defs><style type="text/css">
   
    .fil0 {fill:black}
   
  </style></defs><g><path class="fil0" d="M19172 9380c6681,0 10812,7180 7690,12919l14332 14332c1974,-1539 4448,-2463 7139,-2463 2692,0 5165,924 7143,2462l11181 -11183c-2281,-3856 462,-8776 5006,-8776 3216,0 5832,2615 5832,5833 0,4542 -4919,7286 -8776,5005l-11181 11182c1536,1977 2460,4450 2460,7142 0,2692 -924,5164 -2461,7140l18465 18467c1555,-1411 3610,-2278 5868,-2278 4825,0 8748,3924 8748,8749 0,4825 -3923,8748 -8748,8748 -4825,0 -8749,-3923 -8749,-8748 0,-1510 384,-2929 1059,-4171l-18706 -18705c-1613,1253 -3557,2093 -5683,2360l0 14815c4130,696 7290,4289 7290,8617 0,4825 -3924,8749 -8749,8749 -4825,0 -8748,-3924 -8748,-8749 0,-4326 3160,-7919 7291,-8617l0 -14815c-2126,-267 -4072,-1107 -5684,-2360l-11182 11182c514,869 827,1866 827,2945 0,3217 -2616,5833 -5832,5833 -3216,0 -5832,-2616 -5832,-5833 0,-3216 2616,-5832 5832,-5832 1080,0 2077,313 2945,827l11181 -11182c-1536,-1978 -2461,-4450 -2461,-7142 0,-2692 925,-5165 2461,-7141l-14092 -14092c-5556,5045 -14615,1162 -14615,-6471 0,-4825 3924,-8749 8749,-8749z"/></g><text x="0" y="100015" fill="#000000" font-size="5px" font-weight="bold" font-family="'Helvetica Neue', Helvetica, Arial-Unicode, Arial, Sans-serif">Created by faim desainer</text><text x="0" y="100020" fill="#000000" font-size="5px" font-weight="bold" font-family="'Helvetica Neue', Helvetica, Arial-Unicode, Arial, Sans-serif">from the Noun Project</text></svg>