<svg fill="#FFFFFF" xmlns:dc="http://purl.org/dc/elements/1.1/" xmlns:cc="http://creativecommons.org/ns#" xmlns:rdf="http://www.w3.org/1999/02/22-rdf-syntax-ns#" xmlns:svg="http://www.w3.org/2000/svg" xmlns="http://www.w3.org/2000/svg" xmlns:sodipodi="http://sodipodi.sourceforge.net/DTD/sodipodi-0.dtd" xmlns:inkscape="http://www.inkscape.org/namespaces/inkscape" version="1.1" x="0px" y="0px" viewBox="0 0 100 100"><g transform="translate(0,-952.36218)"><path style="text-indent:0;text-transform:none;direction:ltr;block-progression:tb;baseline-shift:baseline;color:#000000;enable-background:accumulate;" d="m 59,958.36219 c -4.9587,0 -9,4.04127 -9,9 0,3.38475 1.8839,6.36989 4.6562,7.90625 l -5.0624,16.90623 c -1.4423,-0.5034 -2.982,-0.8125 -4.5938,-0.8125 -4.514,0 -8.532,2.1735 -11.0938,5.5 l -14,-13.12498 C 21.1991,982.3153 22,980.42771 22,978.36219 c 0,-4.40644 -3.5936,-8 -8,-8 -4.4064,0 -8,3.59356 -8,8 0,4.40644 3.5936,8 8,8 1.6114,0 3.117,-0.45604 4.375,-1.28125 l 14.4062,13.50003 C 31.656,1000.5963 31,1002.8945 31,1005.3622 c 0,3.4963 1.2798,6.7003 3.4062,9.1562 L 22,1026.8934 c -1.9024,-1.5707 -4.3474,-2.5312 -7,-2.5312 -6.0632,0 -11,4.9366 -11,11 0,6.0632 4.9367,11 11,11 6.0633,0 11,-4.9368 11,-11 0,-2.6773 -0.9655,-5.1213 -2.5625,-7.0313 l 12.4063,-12.4062 c 2.458,2.1346 5.6524,3.4375 9.1562,3.4375 5.034,0 9.4388,-2.6578 11.9062,-6.6563 l 15.4376,5.1563 c -0.209,0.8034 -0.3438,1.6324 -0.3438,2.5 0,5.511 4.489,10 10,10 5.511,0 10,-4.489 10,-10 0,-5.511 -4.489,-10 -10,-10 -3.9266,0 -7.3338,2.29 -8.9688,5.5937 l -15.1562,-5.0312 c 0.7338,-1.6985 1.125,-3.5976 1.125,-5.5625 0,-1.5872 -0.2611,-3.1078 -0.75,-4.5312 l 25.5938,-13.71881 c 1.2813,1.39613 3.1205,2.25 5.1562,2.25 3.8541,0 7,-3.14586 7,-7 0,-3.85414 -3.1459,-7 -7,-7 -3.8541,0 -7,3.14586 -7,7 0,1.09625 0.2658,2.13695 0.7188,3.0625 l -25.2813,13.53128 c -1.3233,-2.5533 -3.4229,-4.6331 -5.9687,-5.9688 l 5.0937,-16.96873 c 0.7738,0.21777 1.5955,0.34375 2.4375,0.34375 4.9587,0 9,-4.04127 9,-9 0,-4.95873 -4.0413,-9 -9,-9 z m 0,2 c 3.8779,0 7,3.12213 7,7 0,3.87787 -3.1221,7 -7,7 -3.8779,0 -7,-3.12213 -7,-7 0,-3.87787 3.1221,-7 7,-7 z m -45,12 c 3.3256,0 6,2.67444 6,6 0,3.32556 -2.6744,6 -6,6 -3.3256,0 -6,-2.67444 -6,-6 0,-3.32556 2.6744,-6 6,-6 z m 75,5 c 2.7733,0 5,2.22674 5,5 0,2.77326 -2.2267,5 -5,5 -1.631,0 -3.0576,-0.77017 -3.9688,-1.96875 l -0.5,-0.9375 -0.062,0.0312 C 84.173,983.84749 84,983.11659 84,982.36219 c 0,-2.77326 2.2267,-5 5,-5 z m -44,15.99998 c 6.6393,0 12,5.3608 12,12.00003 0,6.6392 -5.3607,12 -12,12 -6.6393,0 -12,-5.3608 -12,-12 0,-6.63923 5.3607,-12.00003 12,-12.00003 z m 37,19.00003 c 4.4302,0 8,3.5698 8,8 0,4.4302 -3.5698,8 -8,8 -4.4302,0 -8,-3.5698 -8,-8 0,-4.4302 3.5698,-8 8,-8 z m -67,14 c 4.9824,0 9,4.0175 9,9 0,4.9823 -4.0177,9 -9,9 -4.9823,0 -9,-4.0177 -9,-9 0,-4.9825 4.0176,-9 9,-9 z" fill="#FFFFFF" fill-opacity="1" stroke="none" marker="none" visibility="visible" display="inline" overflow="visible"></path></g></svg>