<svg xmlns="http://www.w3.org/2000/svg" xmlns:xlink="http://www.w3.org/1999/xlink" version="1.1" x="0px" y="0px" viewBox="0 0 100 100" style="enable-background:new 0 0 100 100;" xml:space="preserve"><path d="M73,45.059V32c0-0.552-0.448-1-1-1H62c0-6.617-5.383-12-12-12s-12,5.383-12,12H28c-0.552,0-1,0.448-1,1v13.059  c-4.493,0.5-8,4.317-8,8.941c0,4.962,4.038,9,9,9s9-4.038,9-9c0-4.624-3.507-8.441-8-8.941V33h9.181  c0.902,5.344,5.339,9.494,10.819,9.949v20.11c-4.493,0.5-8,4.317-8,8.941c0,4.962,4.038,9,9,9s9-4.038,9-9  c0-4.624-3.507-8.441-8-8.941v-20.11c5.481-0.455,9.917-4.606,10.819-9.949H71v12.059c-4.493,0.5-8,4.317-8,8.941  c0,4.962,4.038,9,9,9s9-4.038,9-9C81,49.376,77.493,45.559,73,45.059z M24.023,59.754c0.582-0.991,1.498-1.754,2.585-2.094  c0.383-0.12,0.657-0.456,0.697-0.855s-0.162-0.783-0.513-0.976c-0.813-0.446-1.317-1.288-1.317-2.196c0-1.389,1.13-2.519,2.52-2.519  s2.519,1.13,2.519,2.519c0,0.908-0.505,1.75-1.317,2.196c-0.351,0.193-0.553,0.577-0.513,0.976s0.314,0.735,0.697,0.855  c1.089,0.34,2.007,1.105,2.589,2.1C30.84,60.54,29.473,61,28,61C26.523,61,25.154,60.538,24.023,59.754z M35,54  c0,1.647-0.575,3.16-1.531,4.357c-0.519-0.763-1.19-1.41-1.964-1.898c0.641-0.79,1.007-1.782,1.007-2.826  c0-2.492-2.027-4.519-4.519-4.519c-2.492,0-4.52,2.027-4.52,4.519c0,1.043,0.366,2.036,1.007,2.826  c-0.771,0.486-1.44,1.13-1.958,1.889C21.573,57.152,21,55.643,21,54c0-3.86,3.14-7,7-7S35,50.14,35,54z M48.089,34.488  C46.8,33.78,46,32.443,46,31c0-2.206,1.794-4,4-4s4,1.794,4,4c0,1.443-0.8,2.78-2.089,3.488c-0.352,0.193-0.553,0.577-0.514,0.976  c0.04,0.398,0.314,0.735,0.696,0.855c1.516,0.474,2.828,1.479,3.714,2.806C54.168,40.3,52.167,41,50,41s-4.168-0.7-5.808-1.875  c0.886-1.326,2.198-2.331,3.714-2.806c0.382-0.12,0.656-0.457,0.696-0.855C48.642,35.065,48.44,34.681,48.089,34.488z   M46.023,77.754c0.582-0.991,1.498-1.754,2.585-2.094c0.383-0.12,0.657-0.456,0.697-0.855s-0.162-0.783-0.513-0.976  c-0.813-0.446-1.317-1.288-1.317-2.196c0-1.389,1.13-2.519,2.52-2.519s2.519,1.13,2.519,2.519c0,0.908-0.505,1.75-1.317,2.196  c-0.351,0.193-0.553,0.577-0.513,0.976s0.314,0.735,0.697,0.855c1.089,0.34,2.007,1.105,2.589,2.1C52.84,78.54,51.473,79,50,79  C48.523,79,47.154,78.538,46.023,77.754z M57,72c0,1.647-0.575,3.16-1.531,4.357c-0.519-0.763-1.19-1.41-1.964-1.898  c0.641-0.79,1.007-1.782,1.007-2.826c0-2.492-2.027-4.519-4.519-4.519c-2.492,0-4.52,2.027-4.52,4.519  c0,1.043,0.366,2.036,1.007,2.826c-0.771,0.486-1.44,1.13-1.958,1.889C43.573,75.152,43,73.643,43,72c0-3.86,3.14-7,7-7  S57,68.14,57,72z M57.32,37.79c-0.786-1.103-1.807-2.02-2.982-2.672C55.389,34.02,56,32.552,56,31c0-3.309-2.691-6-6-6s-6,2.691-6,6  c0,1.552,0.611,3.02,1.662,4.118c-1.175,0.652-2.197,1.569-2.982,2.672C41.022,36.005,40,33.622,40,31c0-5.514,4.486-10,10-10  s10,4.486,10,10C60,33.622,58.978,36.005,57.32,37.79z M68.023,59.754c0.582-0.991,1.498-1.754,2.585-2.094  c0.383-0.12,0.657-0.456,0.697-0.855s-0.162-0.783-0.513-0.976c-0.813-0.446-1.317-1.288-1.317-2.196c0-1.389,1.13-2.519,2.52-2.519  s2.519,1.13,2.519,2.519c0,0.908-0.505,1.75-1.317,2.196c-0.351,0.193-0.553,0.577-0.513,0.976s0.314,0.735,0.697,0.855  c1.089,0.34,2.007,1.105,2.589,2.1C74.84,60.54,73.473,61,72,61C70.523,61,69.154,60.538,68.023,59.754z M77.469,58.357  c-0.519-0.763-1.19-1.41-1.964-1.898c0.641-0.79,1.007-1.782,1.007-2.826c0-2.492-2.027-4.519-4.519-4.519  c-2.492,0-4.52,2.027-4.52,4.519c0,1.043,0.366,2.036,1.007,2.826c-0.771,0.486-1.44,1.13-1.958,1.889  C65.573,57.152,65,55.643,65,54c0-3.86,3.14-7,7-7s7,3.14,7,7C79,55.647,78.425,57.16,77.469,58.357z"></path></svg>