<svg xmlns:dc="http://purl.org/dc/elements/1.1/" xmlns:cc="http://creativecommons.org/ns#" xmlns:rdf="http://www.w3.org/1999/02/22-rdf-syntax-ns#" xmlns:svg="http://www.w3.org/2000/svg" xmlns="http://www.w3.org/2000/svg" xmlns:sodipodi="http://sodipodi.sourceforge.net/DTD/sodipodi-0.dtd" xmlns:inkscape="http://www.inkscape.org/namespaces/inkscape" viewBox="0 0 1171.932 1111.4528" version="1.1" x="0px" y="0px"><g transform="translate(43298.519,-5180.4159)"><path style="" d="m -42409.019,6290.6395 c -46.466,-5.9624 -92.284,-25.4252 -128.246,-54.4776 -18.416,-14.8775 -41.518,-40.7316 -53.925,-60.3489 -28.743,-45.4489 -42.814,-101.0357 -38.722,-152.9711 6.275,-79.6344 46.466,-148.7032 112.148,-192.727 21.692,-14.5393 49.942,-27.168 75.279,-33.6526 24.917,-6.3771 34.094,-7.4451 63.97,-7.4451 29.876,0 39.053,1.068 63.97,7.4451 64.067,16.3967 120.357,59.3731 154.261,117.7766 46.856,80.7136 44.702,182.1068 -5.556,261.5741 -12.407,19.6173 -35.509,45.4714 -53.925,60.3489 -36.627,29.5891 -82.05,48.6686 -129.967,54.5918 -12.439,1.5376 -46.932,1.4712 -59.287,-0.1143 z m 68.1,-62.1948 c 36.652,-7.9441 70.859,-26.0676 96.573,-51.1668 19.501,-19.0342 39.452,-51.2429 47.702,-77.0091 7.029,-21.9507 8.674,-33.2314 8.674,-59.4558 0,-26.2245 -1.645,-37.5051 -8.674,-59.4558 -8.25,-25.7663 -28.201,-57.9749 -47.702,-77.0091 -19.408,-18.9439 -49.851,-37.4454 -74.713,-45.4061 -21.951,-7.0285 -33.232,-8.6743 -59.456,-8.6743 -26.224,0 -37.505,1.6458 -59.456,8.6743 -24.862,7.9607 -55.305,26.4622 -74.713,45.4061 -19.501,19.0342 -39.452,51.2428 -47.702,77.0091 -7.029,21.9507 -8.674,33.2313 -8.674,59.4558 0,20.4643 0.441,26.3934 2.749,36.9558 4.166,19.068 8.305,30.8122 17.151,48.6692 27.266,55.044 76.932,91.6752 140.02,103.2723 17.054,3.135 50.807,2.5088 68.221,-1.2656 z m -170.096,-145.7567 0,-41.875 35,0 35,0 0,41.875 0,41.875 -35,0 -35,0 0,-41.875 z m 97.5,-41.875 0,-83.75 35,0 35,0 0,83.75 0,83.75 -35,0 -35,0 0,-83.75 z m 100,41.875 0,-41.875 35.625,0 35.625,0 0,41.875 0,41.875 -35.625,0 -35.625,0 0,-41.875 z m -984.988,192.1875 c 0,-3.2656 0.853,-13.25 1.881,-22.1875 1.027,-8.9375 2.424,-21.5938 3.105,-28.125 0.68,-6.5313 2.668,-17.7813 4.417,-25 1.75,-7.2188 3.67,-16.2188 4.268,-20 0.598,-3.7813 1.742,-8.5625 2.542,-10.625 0.799,-2.0625 3.033,-9.375 4.963,-16.25 3.175,-11.3091 5.863,-19.0518 15.404,-44.375 3.796,-10.0771 16.601,-37.364 21.221,-45.2226 1.89,-3.2162 3.437,-6.3747 3.437,-7.0189 0,-0.6443 1.041,-2.5128 2.314,-4.1524 1.272,-1.6396 4.159,-6.319 6.415,-10.3985 2.256,-4.0796 5.153,-8.5451 6.437,-9.9232 1.283,-1.3782 2.369,-3.1029 2.412,-3.8326 0.175,-2.9851 27.466,-40.3471 39.72,-54.3786 8.585,-9.8295 45.364,-46.6958 57.84,-57.9766 2.906,-2.6281 10.041,-8.2531 15.855,-12.5 5.813,-4.2469 12.771,-9.523 15.461,-11.7247 2.69,-2.2017 9.228,-6.6814 14.531,-9.9549 5.302,-3.2734 9.921,-6.3302 10.265,-6.7927 0.344,-0.4626 3.438,-2.42 6.875,-4.3499 3.438,-1.9299 8.301,-4.6655 10.808,-6.0792 14.61,-8.2377 29.249,-15.8269 38.567,-19.9931 5.844,-2.6129 14.705,-6.6523 19.691,-8.9764 4.986,-2.3242 9.656,-4.2257 10.376,-4.2257 0.72,0 5.64,-1.6457 10.934,-3.6572 33.451,-12.7111 84.176,-24.329 115.874,-26.5394 88.733,-6.1877 159.319,2.1987 223.374,26.5394 5.294,2.0115 10.356,3.6658 11.25,3.6763 0.894,0.01 2.413,0.5177 3.376,1.1271 1.354,0.8571 -1.015,4.3182 -10.464,15.2933 -36.721,42.6484 -60.618,95.3522 -69.026,152.2375 -2.971,20.0946 -2.938,62.734 0.06,83.198 7.578,51.6536 28.587,101.36 59.548,140.8823 10.917,13.9358 35.821,38.6854 48.128,47.8287 5.5,4.0862 10.534,7.876 11.188,8.4217 0.653,0.5458 -161.769,0.9923 -360.938,0.9923 l -362.125,0 0.01,-5.9375 z m 479.363,-532.0583 c -0.687,-0.2671 -5.469,-1.1458 -10.625,-1.9528 -21.385,-3.3466 -44.647,-10.722 -62.467,-19.8048 -12.458,-6.3499 -30.348,-17.5752 -35.716,-22.4108 -1.35,-1.2159 -5.969,-5.2214 -10.266,-8.9011 -9.662,-8.2764 -29.528,-30.9534 -35.203,-40.1847 -26.778,-43.5627 -35.098,-76.9635 -35.098,-140.9033 0,-18.0657 0.448,-32.8467 0.996,-32.8467 0.548,0 4.907,2.5903 9.688,5.7562 15.576,10.3163 23.986,15.206 53.066,30.8537 5.156,2.7746 15.15,8.2936 22.208,12.2646 7.058,3.971 13.949,7.5742 15.313,8.007 1.363,0.4328 2.479,1.3116 2.479,1.9527 0,0.6412 0.582,1.1658 1.293,1.1658 0.712,0 5.634,2.4535 10.938,5.4523 5.304,2.9988 15.269,8.4348 22.144,12.0801 6.875,3.6453 16.719,8.9979 21.875,11.8947 5.156,2.8968 18.243,9.8719 29.082,15.5002 l 19.707,10.2333 20.293,-10.7199 c 11.161,-5.8959 23.668,-12.6109 27.793,-14.9221 4.125,-2.3112 19.875,-10.9353 35,-19.1645 15.125,-8.2293 32.281,-17.6502 38.125,-20.9354 5.844,-3.2852 15.969,-8.7962 22.5,-12.2467 6.531,-3.4504 16.938,-9.1055 23.125,-12.5667 6.188,-3.4613 13.781,-7.652 16.875,-9.3128 8.69,-4.6649 26.273,-15.568 26.998,-16.7416 2.365,-3.8271 3.001,1.4567 2.996,24.8866 0,27.7044 -1.823,44.484 -7.973,73.6088 -8.209,38.8813 -22.856,69.0469 -47.506,97.8368 -31.824,37.1692 -72.739,60.0781 -125.14,70.0667 -7.224,1.377 -49.941,3.0485 -52.5,2.0544 z m 12.374,-195.2583 c -3.368,-1.7897 -10.624,-5.6716 -16.124,-8.6263 -5.5,-2.9547 -33.344,-17.8768 -61.875,-33.1603 -81.319,-43.5605 -89.085,-47.7252 -137.5,-73.7359 -34.536,-18.5542 -56.399,-30.2649 -89.762,-48.0797 -18.006,-9.6146 -32.738,-17.8631 -32.738,-18.3299 0,-0.4667 7.172,-4.632 15.938,-9.2561 8.765,-4.6241 19.312,-10.2337 23.437,-12.4658 20.075,-10.8632 55.074,-29.6489 66.25,-35.5604 6.875,-3.6365 14.188,-7.5881 16.25,-8.7815 2.063,-1.1934 9.375,-5.1459 16.25,-8.7834 6.875,-3.6375 26.844,-14.3206 44.375,-23.7401 17.531,-9.4196 49.031,-26.3051 70,-37.5232 20.969,-11.2182 46.844,-25.0986 57.5,-30.8453 10.656,-5.7467 22.827,-12.2051 27.046,-14.3519 l 7.671,-3.9032 20.454,10.9965 c 52.789,28.3809 52.092,28.0071 132.954,71.2983 24.063,12.8824 48.531,25.9589 54.375,29.0588 5.844,3.1 12.313,6.6099 14.375,7.7998 2.063,1.1899 9.375,5.1246 16.25,8.7437 6.875,3.6191 14.188,7.5559 16.25,8.7484 2.063,1.1925 10.5,5.6932 18.75,10.0016 8.25,4.3084 16.688,8.8122 18.75,10.0086 2.063,1.1963 8.25,4.5642 13.75,7.484 5.5,2.9199 16.328,8.6659 24.063,12.769 7.734,4.103 14.062,7.8447 14.062,8.3149 0,0.4703 -2.109,1.967 -4.687,3.3261 -2.579,1.3591 -14.25,7.5896 -25.938,13.8456 -48.237,25.8198 -75.592,40.3432 -85.625,45.4608 -5.844,2.9807 -12.594,6.6546 -15,8.1641 -2.406,1.5096 -12.812,7.2549 -23.125,12.7676 -28.65,15.315 -47.952,25.6617 -121.614,65.1913 -37.325,20.0299 -68.038,36.418 -68.251,36.418 -0.213,0 -3.143,-1.4643 -6.511,-3.2541 z"></path></g></svg>